<svg xmlns="http://www.w3.org/2000/svg" width="32" height="32" fill="none" viewBox="0 0 32 32">
    <path fill="#8C30F5" d="M15.208.176L.781 6.916c-.097.045-.18.117-.238.207-.058.09-.088.195-.088.303 0 .107.03.212.089.302.058.09.141.162.239.207l14.54 6.69c.429.198.925.198 1.354 0l14.54-6.69c.098-.045.181-.116.24-.206.058-.09.089-.195.089-.303 0-.107-.03-.212-.088-.303-.058-.09-.14-.162-.238-.207L16.792.176C16.544.06 16.274 0 16 0s-.544.06-.792.176z"/>
    <path fill="#D6B1FF" d="M31.22 15.568l-2.98-1.392c-.213-.1-.446-.152-.682-.152-.235-.001-.468.05-.682.148l-10.199 4.693c-.212.098-.443.149-.677.149-.234 0-.465-.051-.677-.149l-10.2-4.693c-.214-.098-.447-.149-.682-.148-.235 0-.468.053-.681.152L.78 15.568c-.097.045-.18.117-.238.207-.058.09-.088.196-.088.303 0 .108.032.213.09.303.058.09.14.161.239.206l14.54 6.689c.212.098.443.15.677.15.234 0 .465-.052.677-.15l14.54-6.69c.098-.044.181-.115.24-.205.058-.09.089-.195.089-.303 0-.107-.03-.212-.088-.303-.058-.09-.14-.162-.238-.207z" opacity=".64"/>
    <path fill="#2EC5CE" d="M31.22 24.144l-2.98-1.392c-.213-.1-.446-.152-.681-.152-.236-.001-.469.05-.683.148L16.677 27.44c-.212.098-.443.148-.677.148-.234 0-.465-.05-.677-.148l-10.2-4.693c-.214-.099-.447-.15-.682-.148-.235 0-.468.052-.681.152L.78 24.144c-.097.045-.18.117-.237.207-.057.09-.088.195-.087.303 0 .107.03.211.089.301.058.09.14.162.238.206l14.54 6.691c.429.197.925.197 1.354 0l14.54-6.69c.098-.045.18-.117.238-.207.058-.09.09-.194.09-.301 0-.108-.03-.212-.088-.303-.058-.09-.14-.162-.237-.207z"/>
</svg>
