<svg xmlns="http://www.w3.org/2000/svg" width="32" height="32" fill="none" viewBox="0 0 32 32">
    <path fill="#D6B1FF" d="M28 32H16c-.354 0-.693-.14-.943-.39s-.39-.59-.39-.943V28c0-.354.14-.693.39-.943s.59-.39.943-.39h12c.354 0 .693.14.943.39s.39.59.39.943v2.667c0 .353-.14.692-.39.942S28.353 32 28 32z"/>
    <path fill="#2EC5CE" d="M28 0H4c-.354 0-.693.14-.943.39s-.39.59-.39.943V4c0 .354.14.693.39.943s.59.39.943.39h24c.354 0 .693-.14.943-.39s.39-.59.39-.943V1.333c0-.353-.14-.692-.39-.942S28.353 0 28 0z"/>
    <path fill="#8C30F5" d="M28 8H4c-.354 0-.693.14-.943.39s-.39.59-.39.943v13.334c0 .353.14.692.39.942S3.647 24 4 24h24c.354 0 .693-.14.943-.39s.39-.59.39-.943V9.333c0-.353-.14-.692-.39-.942S28.353 8 28 8z"/>
</svg>
