<svg xmlns="http://www.w3.org/2000/svg" width="32" height="32" fill="none" viewBox="0 0 32 32">
    <path fill="#D6B1FF" d="M6.667 1.333h-4c-.354 0-.693.14-.943.39s-.39.59-.39.944v26.666c0 .354.14.693.39.943s.589.39.943.39h4V1.334z"/>
    <path fill="#8C30F5" d="M9.333 30.667h13.334V1.333H9.333v29.334zM16 25.333c-.354 0-.693-.14-.943-.39s-.39-.59-.39-.943c0-.354.14-.693.39-.943s.59-.39.943-.39c.354 0 .693.14.943.39s.39.59.39.943c0 .354-.14.693-.39.943s-.59.39-.943.39zm0-18.666c.354 0 .693.14.943.39s.39.59.39.943c0 .354-.14.693-.39.943s-.59.39-.943.39c-.354 0-.693-.14-.943-.39s-.39-.59-.39-.943c0-.354.14-.693.39-.943s.59-.39.943-.39zm0 8c.354 0 .693.14.943.39s.39.59.39.943c0 .354-.14.693-.39.943s-.59.39-.943.39c-.354 0-.693-.14-.943-.39s-.39-.59-.39-.943c0-.354.14-.693.39-.943s.59-.39.943-.39z"/>
    <path fill="#2EC5CE" d="M29.333 1.333h-4v29.334h4c.354 0 .693-.14.943-.39s.39-.59.39-.944V2.667c0-.354-.14-.693-.39-.943s-.589-.39-.943-.39z"/>
</svg>
