<svg xmlns="http://www.w3.org/2000/svg" width="72" height="72" fill="none" viewBox="0 0 72 72">
    <rect width="72" height="72" fill="#F4F5F7" rx="36"/>
    <path fill="#D6B1FF" d="M29 25h-3c-.265 0-.52.105-.707.293-.188.187-.293.442-.293.707v20c0 .265.105.52.293.707.187.188.442.293.707.293h3V25z"/>
    <path fill="#8C30F5" d="M31 47h10V25H31v22zm5-4c-.265 0-.52-.105-.707-.293C35.105 42.52 35 42.265 35 42c0-.265.105-.52.293-.707.187-.188.442-.293.707-.293.265 0 .52.105.707.293.188.187.293.442.293.707 0 .265-.105.52-.293.707-.187.188-.442.293-.707.293zm0-14c.265 0 .52.105.707.293.188.187.293.442.293.707 0 .265-.105.52-.293.707-.187.188-.442.293-.707.293-.265 0-.52-.105-.707-.293C35.105 30.52 35 30.265 35 30c0-.265.105-.52.293-.707.187-.188.442-.293.707-.293zm0 6c.265 0 .52.105.707.293.188.187.293.442.293.707 0 .265-.105.52-.293.707-.187.188-.442.293-.707.293-.265 0-.52-.105-.707-.293C35.105 36.52 35 36.265 35 36c0-.265.105-.52.293-.707.187-.188.442-.293.707-.293z"/>
    <path fill="#2EC5CE" d="M46 25h-3v22h3c.265 0 .52-.105.707-.293.188-.187.293-.442.293-.707V26c0-.265-.105-.52-.293-.707C46.52 25.105 46.265 25 46 25z"/>
</svg>
