<svg xmlns="http://www.w3.org/2000/svg" width="72" height="72" fill="none" viewBox="0 0 72 72">
    <rect width="72" height="72" fill="#F4F5F7" rx="36"/>
    <path fill="#D6B1FF" d="M42 34h6l-3-4-3 4zm0 4h6l-3 4-3-4z"/>
    <path fill="#8C30F5" d="M25 24h6v24h-6c-.265 0-.52-.105-.707-.293C24.105 47.52 24 47.265 24 47V25c0-.265.105-.52.293-.707.187-.188.442-.293.707-.293z"/>
    <path fill="#2EC5CE" d="M33 24h6c.265 0 .52.105.707.293.188.187.293.442.293.707v22c0 .265-.105.52-.293.707-.187.188-.442.293-.707.293h-6V24z"/>
</svg>
