<svg xmlns="http://www.w3.org/2000/svg" width="72" height="72" fill="none" viewBox="0 0 72 72">
    <rect width="72" height="72" fill="#F4F5F7" rx="36"/>
    <path fill="#8C30F5" d="M33 34h-7c-.265 0-.52-.105-.707-.293C25.105 33.52 25 33.265 25 33v-7c0-.265.105-.52.293-.707.187-.188.442-.293.707-.293h7c.265 0 .52.105.707.293.188.187.293.442.293.707v7c0 .265-.105.52-.293.707-.187.188-.442.293-.707.293zM33 47h-7c-.265 0-.52-.105-.707-.293C25.105 46.52 25 46.265 25 46v-7c0-.265.105-.52.293-.707.187-.188.442-.293.707-.293h7c.265 0 .52.105.707.293.188.187.293.442.293.707v7c0 .265-.105.52-.293.707-.187.188-.442.293-.707.293z"/>
    <path fill="#2EC5CE" d="M37 26h10v2H37v-2zM47 39H37v2h10v-2z"/>
    <path fill="#D6B1FF" d="M47 44H37v2h10v-2zM47 31H37v2h10v-2z"/>
</svg>
