<svg xmlns="http://www.w3.org/2000/svg" width="65" height="64" fill="none" viewBox="0 0 65 64">
    <rect width="64" height="64" x=".5" fill="#F4F5F7" rx="32"/>
    <g clip-path="url(#clip0)">
        <path fill="#D6B1FF" d="M38.5 30h6l-3-4-3 4zm0 4h6l-3 4-3-4z"/>
        <path fill="#8C30F5" d="M21.5 20h6v24h-6c-.265 0-.52-.105-.707-.293-.188-.187-.293-.442-.293-.707V21c0-.265.105-.52.293-.707.187-.188.442-.293.707-.293z"/>
        <path fill="#2EC5CE" d="M29.5 20h6c.265 0 .52.105.707.293.188.187.293.442.293.707v22c0 .265-.105.52-.293.707-.187.188-.442.293-.707.293h-6V20z"/>
    </g>
    <defs>
        <clipPath id="clip0">
            <path fill="#fff" d="M0 0H24V24H0z" transform="translate(20.5 20)"/>
        </clipPath>
    </defs>
</svg>
