<svg xmlns="http://www.w3.org/2000/svg" width="65" height="64" fill="none" viewBox="0 0 65 64">
    <rect width="64" height="64" x=".5" fill="#F4F5F7" rx="32"/>
    <path fill="#D6B1FF" d="M41.5 44h-9c-.265 0-.52-.105-.707-.293-.188-.187-.293-.442-.293-.707v-2c0-.265.105-.52.293-.707.187-.188.442-.293.707-.293h9c.265 0 .52.105.707.293.188.187.293.442.293.707v2c0 .265-.105.52-.293.707-.187.188-.442.293-.707.293z"/>
    <path fill="#2EC5CE" d="M41.5 20h-18c-.265 0-.52.105-.707.293-.188.187-.293.442-.293.707v2c0 .265.105.52.293.707.187.188.442.293.707.293h18c.265 0 .52-.105.707-.293.188-.187.293-.442.293-.707v-2c0-.265-.105-.52-.293-.707-.187-.188-.442-.293-.707-.293z"/>
    <path fill="#8C30F5" d="M41.5 26h-18c-.265 0-.52.105-.707.293-.188.187-.293.442-.293.707v10c0 .265.105.52.293.707.187.188.442.293.707.293h18c.265 0 .52-.105.707-.293.188-.187.293-.442.293-.707V27c0-.265-.105-.52-.293-.707-.187-.188-.442-.293-.707-.293z"/>
</svg>
