<svg xmlns="http://www.w3.org/2000/svg" width="65" height="64" fill="none" viewBox="0 0 65 64">
    <rect width="64" height="64" x=".5" fill="#F4F5F7" rx="32"/>
    <path fill="#2EC5CE" d="M43.5 26v-4c0-.265-.105-.52-.293-.707-.187-.188-.442-.293-.707-.293h-20c-.265 0-.52.105-.707.293-.188.187-.293.442-.293.707v4h22z"/>
    <path fill="#D6B1FF" d="M21.5 28v14c0 .265.105.52.293.707.187.188.442.293.707.293h5V28h-6z"/>
    <path fill="#8C30F5" d="M29.5 43h13c.265 0 .52-.105.707-.293.188-.187.293-.442.293-.707V28h-14v15z"/>
</svg>
