<svg xmlns="http://www.w3.org/2000/svg" width="32" height="32" fill="none" viewBox="0 0 32 32">
    <path fill="#8C30F5" d="M12 13.333H2.667c-.354 0-.693-.14-.943-.39s-.39-.59-.39-.943V2.667c0-.354.14-.693.39-.943s.589-.39.943-.39H12c.354 0 .693.14.943.39s.39.59.39.943V12c0 .354-.14.693-.39.943s-.59.39-.943.39zM12 30.667H2.667c-.354 0-.693-.14-.943-.39s-.39-.59-.39-.944V20c0-.354.14-.693.39-.943s.589-.39.943-.39H12c.354 0 .693.14.943.39s.39.59.39.943v9.333c0 .354-.14.693-.39.943s-.59.39-.943.39z"/>
    <path fill="#2EC5CE" d="M17.333 2.667h13.334v2.666H17.333V2.667zM30.667 20H17.333v2.667h13.334V20z"/>
    <path fill="#D6B1FF" d="M30.667 26.667H17.333v2.666h13.334v-2.666zM30.667 9.333H17.333V12h13.334V9.333z"/>
</svg>
