<svg xmlns="http://www.w3.org/2000/svg" width="32" height="32" fill="none" viewBox="0 0 32 32">
    <path fill="#fff" fill-rule="evenodd" d="M0 16C0 7.163 7.163 0 16 0s16 7.163 16 16-7.163 16-16 16S0 24.837 0 16z" clip-rule="evenodd" opacity=".1"/>
    <path fill="#fff" fill-rule="evenodd" d="M24.533 15.988c0 .577-.058 1.154-.174 1.715-.112.549-.279 1.087-.497 1.602-.214.505-.478.993-.787 1.447-.305.451-.656.875-1.041 1.261-.387.385-.812.734-1.263 1.04-.456.307-.944.572-1.45.786-.515.217-1.055.384-1.603.496-.562.116-1.14.175-1.718.175-.579 0-1.157-.06-1.719-.175-.549-.112-1.088-.279-1.603-.496-.506-.214-.994-.479-1.45-.786-.452-.306-.877-.655-1.262-1.04-.386-.386-.737-.81-1.042-1.261-.307-.454-.572-.942-.786-1.447-.219-.515-.386-1.053-.499-1.602-.114-.561-.172-1.138-.172-1.715 0-.577.058-1.155.172-1.715.113-.549.28-1.088.499-1.602.214-.506.479-.993.786-1.448.305-.452.656-.875 1.042-1.261.386-.385.81-.734 1.262-1.039.456-.308.944-.573 1.45-.787.515-.218 1.054-.385 1.603-.496.562-.115 1.14-.173 1.719-.173.578 0 1.156.058 1.718.173.548.111 1.088.278 1.604.496.505.214.993.479 1.45.787.45.305.876.654 1.262 1.039.385.386.736.81 1.04 1.261.31.454.574.942.788 1.448.218.514.385 1.053.497 1.602.116.56.174 1.138.174 1.715zM12.89 9.406c-2.032.958-3.549 2.828-4.022 5.082.192.001 3.23.04 6.728-.889-1.261-2.237-2.609-4.064-2.706-4.193zm3.31 5.314c-3.752 1.122-7.353 1.041-7.482 1.036-.002.078-.006.154-.006.232 0 1.87.706 3.574 1.867 4.863-.002-.004 1.992-3.537 5.925-4.807.095-.032.191-.06.287-.087-.183-.414-.382-.828-.591-1.237zm4.612-4.193C19.53 9.397 17.845 8.712 16 8.712c-.592 0-1.167.071-1.718.204.11.146 1.478 1.96 2.725 4.244 2.75-1.029 3.787-2.607 3.805-2.633zm-3.524 6.635l-.048.016c-4.3 1.497-5.704 4.513-5.72 4.546 1.238.961 2.79 1.54 4.48 1.54 1.009 0 1.97-.204 2.845-.576-.108-.636-.531-2.864-1.557-5.526zm2.784 4.861c1.636-1.102 2.798-2.853 3.123-4.881-.15-.049-2.19-.693-4.541-.317.955 2.623 1.344 4.76 1.418 5.198zm-2.504-7.778c.169.347.333.7.484 1.055.054.127.106.252.157.377 2.504-.315 4.97.215 5.076.236-.017-1.725-.635-3.308-1.657-4.548-.014.02-1.183 1.706-4.06 2.88z" clip-rule="evenodd"/>
</svg>
