<svg xmlns="http://www.w3.org/2000/svg" width="32" height="32" fill="none" viewBox="0 0 32 32">
    <path fill="#fff" fill-rule="evenodd" d="M0 16C0 7.163 7.163 0 16 0s16 7.163 16 16-7.163 16-16 16S0 24.837 0 16z" clip-rule="evenodd" opacity=".1"/>
    <path fill="#fff" fill-rule="evenodd" d="M22.668 10.5c.734.201 1.312.795 1.509 1.549.356 1.366.356 4.218.356 4.218s0 2.85-.356 4.218c-.197.753-.775 1.347-1.51 1.549C21.338 22.4 16 22.4 16 22.4s-5.337 0-6.668-.366c-.734-.202-1.313-.796-1.509-1.55-.356-1.366-.356-4.217-.356-4.217s0-2.852.356-4.218c.197-.754.775-1.348 1.51-1.55 1.33-.366 6.667-.366 6.667-.366s5.337 0 6.668.367zM14.4 13.866V19.2l4.267-2.667-4.267-2.666z" clip-rule="evenodd"/>
</svg>
