<svg xmlns="http://www.w3.org/2000/svg" width="162" height="48" fill="none" viewBox="0 0 162 48">
    <g clip-path="url(#clip0)">
        <path fill="#000" d="M156 0H6C2.687 0 0 2.686 0 6v36c0 3.313 2.687 6 6 6h150c3.313 0 6-2.687 6-6V6c0-3.314-2.687-6-6-6z"/>
        <path fill="#A6A6A6" d="M156 .96c1.336.002 2.617.533 3.562 1.478.945.945 1.476 2.226 1.477 3.562v36c-.001 1.336-.532 2.617-1.477 3.562-.945.945-2.226 1.477-3.562 1.478H6c-1.336-.001-2.617-.533-3.562-1.478C1.493 44.617.962 43.336.96 42V6c.002-1.336.533-2.617 1.478-3.562C3.383 1.493 4.664.962 6 .96h150zm0-.96H6C4.41.005 2.887.64 1.763 1.763.639 2.887.005 4.41 0 6v36c.005 1.59.639 3.113 1.763 4.237C2.887 47.362 4.41 47.995 6 48h150c1.589-.005 3.113-.638 4.237-1.763 1.124-1.124 1.758-2.647 1.763-4.237V6c-.005-1.59-.639-3.113-1.763-4.237C159.113.639 157.589.005 156 0z"/>
        <path fill="#fff" stroke="#fff" stroke-miterlimit="10" stroke-width=".2" d="M56.902 12.292c.022.44-.046.88-.2 1.294-.154.413-.39.79-.694 1.11-.341.353-.753.63-1.209.814-.456.184-.945.27-1.436.25-.494.005-.984-.09-1.441-.277-.457-.188-.872-.465-1.22-.815-.35-.35-.624-.767-.81-1.225-.185-.458-.277-.949-.27-1.443-.007-.494.085-.985.27-1.443.186-.458.46-.874.81-1.225.348-.35.763-.627 1.22-.815.457-.188.947-.282 1.441-.278.508-.002 1.011.101 1.478.302.433.175.82.451 1.126.804l-.633.634c-.241-.284-.544-.509-.886-.657-.342-.148-.713-.216-1.085-.198-.374-.002-.745.072-1.09.217-.346.145-.659.358-.92.626-.26.269-.465.587-.6.936-.135.35-.198.723-.186 1.097-.009.56.149 1.111.453 1.582.305.471.742.84 1.257 1.063.515.222 1.084.286 1.636.184.55-.102 1.06-.366 1.461-.757.37-.398.584-.916.603-1.458h-2.614v-.865h3.489c.033.179.05.36.05.543v0zM62.433 9.285h-3.279v2.283h2.957v.864h-2.956v2.283h3.278v.885H58.23V8.4h4.203v.885zM66.335 15.6h-.926V9.285h-2.011V8.4h4.947v.885h-2.01V15.6zM71.925 15.6V8.4h.925v7.2h-.924zM76.954 15.6h-.926V9.285h-2.01V8.4h4.947v.885h-2.011V15.6zM88.331 14.67c-.7.698-1.65 1.09-2.64 1.09-.99 0-1.938-.392-2.64-1.09-.346-.352-.618-.769-.8-1.227-.183-.46-.27-.95-.26-1.443-.01-.493.077-.984.26-1.442.182-.459.454-.876.8-1.227.347-.347.759-.622 1.211-.809.453-.187.938-.284 1.428-.283.49 0 .975.097 1.428.285.452.189.863.464 1.208.811.347.35.62.767.803 1.224.183.458.273.948.263 1.441.01.493-.078.984-.26 1.442-.182.459-.454.876-.8 1.227v0zm-4.596-.603c.519.518 1.222.809 1.956.809.733 0 1.437-.291 1.956-.81.266-.272.474-.596.612-.95.137-.356.201-.735.188-1.116.013-.38-.05-.76-.188-1.115s-.346-.68-.612-.952c-.52-.518-1.223-.809-1.956-.809-.734 0-1.437.291-1.956.81-.266.272-.474.596-.61.951-.138.355-.202.735-.19 1.115-.012.38.052.76.19 1.115.136.355.344.679.61.952v0zM90.69 15.6V8.4h1.126l3.5 5.601h.04l-.04-1.388V8.4h.925v7.2h-.965l-3.661-5.872h-.04l.04 1.387V15.6h-.925z"/>
        <path fill="#fff" d="M81.763 26.102c-1.009.004-1.994.306-2.83.87-.837.563-1.488 1.361-1.872 2.294-.383.933-.481 1.958-.282 2.947.2.989.687 1.897 1.401 2.608.715.712 1.624 1.196 2.614 1.392.99.195 2.014.093 2.946-.294.931-.387 1.727-1.041 2.287-1.88.56-.839.86-1.825.86-2.833.009-.675-.117-1.345-.371-1.97s-.632-1.192-1.11-1.668c-.478-.477-1.046-.852-1.672-1.103-.626-.252-1.296-.376-1.971-.363zm0 8.197c-.621.044-1.241-.1-1.78-.413-.538-.313-.97-.78-1.238-1.343-.269-.561-.362-1.19-.268-1.806.094-.616.372-1.189.796-1.645.424-.455.976-.773 1.583-.91.608-.138 1.242-.09 1.822.138.58.228 1.077.625 1.427 1.14.35.515.538 1.123.538 1.746.02.393-.04.786-.176 1.156-.136.37-.344.709-.612.997-.268.288-.592.52-.951.681-.36.162-.747.25-1.141.259zm-11.176-8.197c-1.009.004-1.994.306-2.83.87-.837.563-1.488 1.36-1.872 2.294-.383.933-.481 1.958-.282 2.947.199.989.687 1.896 1.401 2.608.715.712 1.624 1.196 2.614 1.392.99.195 2.014.093 2.946-.294.931-.387 1.727-1.041 2.287-1.88.56-.839.859-1.825.859-2.833.01-.675-.116-1.345-.37-1.97s-.632-1.192-1.11-1.668c-.478-.476-1.047-.852-1.672-1.103-.626-.252-1.297-.376-1.971-.363zm0 8.197c-.621.044-1.241-.1-1.78-.413-.538-.313-.97-.78-1.238-1.343-.269-.561-.362-1.19-.268-1.806.094-.616.372-1.189.796-1.645.424-.455.976-.773 1.583-.91.608-.138 1.242-.09 1.822.138.58.228 1.077.625 1.427 1.14.35.515.538 1.123.538 1.746.02.393-.04.786-.176 1.156-.136.37-.344.709-.612.997-.268.288-.592.52-.951.681-.36.162-.747.25-1.141.259zm-13.295-6.631v2.165h5.182c-.075 1.016-.49 1.976-1.18 2.726-.519.53-1.143.944-1.833 1.217-.689.273-1.428.398-2.169.368-1.514-.02-2.96-.636-4.023-1.715-1.064-1.078-1.66-2.531-1.66-4.046 0-1.514.596-2.968 1.66-4.046 1.064-1.078 2.509-1.695 4.023-1.715 1.455-.019 2.858.537 3.906 1.547l1.527-1.528c-.715-.707-1.563-1.265-2.496-1.64s-1.931-.56-2.937-.544c-1.05-.016-2.093.178-3.068.57-.975.391-1.863.973-2.611 1.71-.749.738-1.343 1.617-1.749 2.586-.405.97-.614 2.01-.614 3.06 0 1.05.209 2.091.614 3.06.406.97 1 1.848 1.749 2.586.748.738 1.636 1.319 2.61 1.71.976.392 2.019.586 3.07.57 1.026.043 2.05-.133 3.003-.517.953-.383 1.814-.965 2.526-1.706 1.262-1.378 1.935-3.196 1.875-5.065.005-.454-.034-.907-.116-1.353h-7.289zm54.37 1.682c-.307-.925-.89-1.732-1.672-2.313-.782-.581-1.723-.908-2.697-.935-.656.004-1.304.14-1.905.403-.602.261-1.144.642-1.593 1.12-.45.476-.799 1.04-1.025 1.655-.226.616-.325 1.27-.291 1.926-.014.67.106 1.338.355 1.961s.621 1.19 1.093 1.667c.473.476 1.037.852 1.659 1.106.621.253 1.287.379 1.958.37.841.004 1.67-.2 2.412-.595.743-.395 1.375-.968 1.841-1.668l-1.74-1.16c-.26.434-.629.791-1.069 1.039-.441.247-.938.376-1.444.373-.52.02-1.034-.117-1.475-.393-.441-.276-.789-.678-.999-1.154l6.824-2.822-.232-.58zm-6.959 1.701c-.025-.371.026-.744.147-1.096.122-.352.313-.676.561-.953.249-.277.55-.502.886-.661.337-.16.701-.25 1.073-.267.387-.026.774.063 1.111.256.336.193.609.48.784.827l-4.562 1.894zM99.154 36h2.243V20.998h-2.243V36zm-3.673-8.758h-.078c-.34-.37-.757-.663-1.22-.86-.463-.197-.963-.292-1.467-.28-1.316.056-2.56.618-3.47 1.57-.912.95-1.42 2.216-1.42 3.534 0 1.317.508 2.583 1.42 3.534.91.951 2.154 1.513 3.47 1.57.506.013 1.008-.084 1.472-.284.464-.2.879-.5 1.215-.877h.078v.735c0 1.953-1.044 2.997-2.726 2.997-.56-.014-1.105-.194-1.562-.517-.458-.324-.81-.777-1.01-1.3l-1.952.811c.368.896.995 1.662 1.801 2.2.806.537 1.754.821 2.723.816 2.63 0 4.852-1.546 4.852-5.316V26.41h-2.126v.831zM92.91 34.3c-.775-.066-1.498-.42-2.024-.993s-.818-1.322-.818-2.1.292-1.528.818-2.1c.526-.574 1.249-.928 2.024-.994.385.02.763.116 1.11.284.349.168.659.404.913.694.254.29.448.63.568.996.121.367.167.754.134 1.139.03.382-.017.767-.139 1.13-.121.364-.315.7-.57.986-.254.287-.564.52-.91.685-.347.164-.723.257-1.106.273zm29.257-13.3h-5.366V36h2.239v-5.684h3.127c.633.035 1.267-.06 1.862-.278.596-.219 1.14-.556 1.601-.992.461-.436.827-.962 1.078-1.544.251-.583.38-1.21.38-1.845 0-.634-.129-1.262-.38-1.844-.251-.583-.617-1.108-1.078-1.544-.461-.436-1.005-.774-1.601-.992-.595-.219-1.229-.313-1.862-.279zm.058 7.23h-3.185v-5.143h3.185c.342-.007.682.055 1 .18.318.127.608.315.852.554.245.24.439.526.572.841.132.316.201.654.201.996 0 .343-.069.681-.201.997-.133.315-.327.601-.572.84-.244.24-.534.428-.852.554-.318.126-.658.188-1 .18zm13.838-2.155c-.818-.047-1.631.144-2.341.552-.709.408-1.285 1.015-1.655 1.745l1.988.83c.197-.363.496-.66.859-.855.364-.195.776-.28 1.187-.245.568-.056 1.135.116 1.576.478.442.362.722.884.779 1.452v.154c-.719-.382-1.521-.58-2.336-.579-2.142 0-4.323 1.177-4.323 3.378.021.463.135.918.335 1.337.2.419.482.793.829 1.101.348.308.753.543 1.193.69.44.149.905.207 1.368.172.564.033 1.126-.086 1.629-.343.502-.259.926-.646 1.228-1.124h.077v1.158h2.161v-5.751c0-2.664-1.988-4.15-4.554-4.15zm-.271 8.222c-.733 0-1.756-.367-1.756-1.274 0-1.158 1.274-1.602 2.374-1.602.715-.019 1.421.154 2.046.502-.083.65-.398 1.25-.887 1.686-.49.436-1.121.68-1.777.688zm12.7-7.894l-2.567 6.504h-.078l-2.663-6.504h-2.412l3.995 9.09-2.278 5.057h2.336l6.156-14.147h-2.489zM128.323 36h2.239V20.998h-2.239V36z"/>
        <path fill="url(#paint0_linear)" d="M12.523 9.046c-.394.47-.592 1.073-.556 1.686V37.27c-.037.612.162 1.215.556 1.685l.088.087 14.867-14.866v-.351L12.611 8.959l-.088.087z"/>
        <path fill="url(#paint1_linear)" d="M32.434 29.134l-4.956-4.957v-.351l4.957-4.957.111.064 5.872 3.336c1.677.953 1.677 2.512 0 3.465l-5.872 3.336-.112.064z"/>
        <path fill="url(#paint2_linear)" d="M32.546 29.07L27.478 24 12.523 38.957c.341.301.778.473 1.233.487.456.013.902-.133 1.26-.414l17.53-9.96z"/>
        <path fill="url(#paint3_linear)" d="M32.546 18.932l-17.53-9.96c-.358-.28-.804-.427-1.26-.414-.455.014-.892.186-1.233.488L27.478 24l5.068-5.069z"/>
        <path fill="#000" d="M32.435 28.958l-17.419 9.897c-.345.263-.766.406-1.2.408-.433.003-.856-.136-1.204-.395l-.09.09.09.086c.348.258.77.397 1.204.395.434-.002.855-.146 1.2-.409l17.53-9.96-.111-.112z" opacity=".2"/>
        <path fill="#000" d="M12.523 38.782c-.394-.47-.592-1.074-.556-1.686v.175c-.037.613.162 1.216.556 1.686l.09-.09-.09-.085zM38.418 25.558l-5.983 3.4.111.112 5.872-3.336c.345-.15.644-.39.865-.695.221-.304.357-.663.393-1.037-.075.34-.227.657-.445.927-.219.27-.497.486-.813.63z" opacity=".12"/>
        <path fill="#fff" d="M15.016 9.148l23.402 13.296c.316.144.595.36.813.63.218.27.37.588.445.927-.036-.375-.171-.733-.392-1.038-.222-.305-.52-.545-.866-.695L15.016 8.973c-1.677-.953-3.049-.162-3.049 1.76v.174c0-1.92 1.372-2.712 3.05-1.76z" opacity=".25"/>
    </g>
    <defs>
        <linearGradient id="paint0_linear" x1="26.16" x2="6.021" y1="10.452" y2="30.59" gradientUnits="userSpaceOnUse">
            <stop stop-color="#00A0FF"/>
            <stop offset=".007" stop-color="#00A1FF"/>
            <stop offset=".26" stop-color="#00BEFF"/>
            <stop offset=".512" stop-color="#00D2FF"/>
            <stop offset=".76" stop-color="#00DFFF"/>
            <stop offset="1" stop-color="#00E3FF"/>
        </linearGradient>
        <linearGradient id="paint1_linear" x1="40.601" x2="11.565" y1="24.002" y2="24.002" gradientUnits="userSpaceOnUse">
            <stop stop-color="#FFE000"/>
            <stop offset=".409" stop-color="#FFBD00"/>
            <stop offset=".775" stop-color="orange"/>
            <stop offset="1" stop-color="#FF9C00"/>
        </linearGradient>
        <linearGradient id="paint2_linear" x1="29.793" x2="2.483" y1="26.755" y2="54.065" gradientUnits="userSpaceOnUse">
            <stop stop-color="#FF3A44"/>
            <stop offset="1" stop-color="#C31162"/>
        </linearGradient>
        <linearGradient id="paint3_linear" x1="8.757" x2="20.952" y1=".212" y2="12.406" gradientUnits="userSpaceOnUse">
            <stop stop-color="#32A071"/>
            <stop offset=".069" stop-color="#2DA771"/>
            <stop offset=".476" stop-color="#15CF74"/>
            <stop offset=".801" stop-color="#06E775"/>
            <stop offset="1" stop-color="#00F076"/>
        </linearGradient>
        <clipPath id="clip0">
            <path fill="#fff" d="M0 0H161.999V48H0z"/>
        </clipPath>
    </defs>
</svg>
