<svg xmlns="http://www.w3.org/2000/svg" width="162" height="48" fill="none" viewBox="0 0 162 48">
    <g clip-path="url(#clip0)">
        <path fill="#A6A6A6" d="M149.099 0H12.908c-.496 0-.987 0-1.482.002-.415.003-.826.01-1.244.016-.91.01-1.816.08-2.713.212-.896.134-1.763.388-2.573.752-.81.367-1.549.845-2.192 1.415-.646.568-1.184 1.225-1.595 1.945C.698 5.06.412 5.83.263 6.626.113 7.42.031 8.223.021 9.028c-.013.368-.014.737-.021 1.105V37.87c.007.373.008.734.02 1.107.011.805.092 1.608.243 2.402.149.795.434 1.566.846 2.285.41.718.95 1.372 1.595 1.937.64.573 1.38 1.05 2.192 1.415.81.365 1.677.62 2.573.757.897.13 1.804.201 2.713.212.418.008.83.013 1.244.013.495.002.986.002 1.482.002h136.191c.487 0 .981 0 1.468-.002.412 0 .835-.005 1.248-.013.907-.01 1.812-.081 2.707-.212.899-.138 1.77-.393 2.584-.757.81-.365 1.549-.843 2.189-1.415.645-.567 1.185-1.22 1.6-1.937.409-.72.691-1.49.838-2.285.151-.794.235-1.597.251-2.402.005-.373.005-.734.005-1.107.011-.436.011-.87.011-1.312V11.443c0-.44 0-.875-.011-1.31 0-.368 0-.737-.005-1.105-.016-.805-.1-1.608-.251-2.402-.147-.795-.43-1.565-.838-2.284-.836-1.444-2.161-2.619-3.789-3.36-.814-.363-1.685-.617-2.584-.752-.895-.133-1.8-.204-2.707-.212-.413-.006-.836-.013-1.248-.016C150.08 0 149.586 0 149.099 0z"/>
        <path fill="#000" d="M11.316 46.954c-.413 0-.816-.005-1.226-.013-.85-.01-1.697-.075-2.535-.196-.782-.12-1.54-.34-2.247-.658-.701-.314-1.34-.726-1.894-1.22-.562-.488-1.03-1.054-1.384-1.676-.36-.626-.608-1.297-.737-1.989-.14-.744-.215-1.496-.226-2.25-.008-.253-.02-1.096-.02-1.096V10.129s.013-.83.02-1.073c.01-.753.086-1.505.225-2.247.13-.695.378-1.368.737-1.995.354-.622.819-1.188 1.377-1.678.557-.495 1.199-.909 1.901-1.228.707-.315 1.462-.535 2.243-.652.84-.122 1.69-.188 2.543-.197l1.224-.015h139.367l1.238.015c.845.01 1.687.074 2.52.195.788.119 1.552.34 2.266.658 1.408.642 2.553 1.658 3.275 2.905.354.623.598 1.29.726 1.979.141.749.22 1.506.236 2.265.004.34.004.705.004 1.068.011.45.011.879.011 1.31v25.12c0 .436 0 .862-.011 1.29 0 .391 0 .749-.005 1.117-.016.745-.094 1.489-.232 2.224-.127.698-.374 1.374-.732 2.005-.358.615-.823 1.176-1.378 1.663-.554.497-1.195.911-1.898 1.227-.712.32-1.474.542-2.262.66-.838.121-1.685.187-2.534.196-.398.008-.814.013-1.217.013l-1.47.002-137.905-.002z"/>
        <path fill="#fff" d="M39.357 24.36c.013-1 .279-1.983.773-2.854.495-.871 1.201-1.603 2.055-2.128-.542-.774-1.258-1.411-2.089-1.86-.831-.45-1.756-.7-2.7-.729-2.016-.211-3.97 1.206-4.996 1.206-1.047 0-2.628-1.185-4.33-1.15-1.102.036-2.175.356-3.116.93-.94.573-1.716 1.38-2.252 2.344-2.32 4.018-.59 9.923 1.633 13.17 1.113 1.591 2.413 3.368 4.114 3.305 1.664-.07 2.286-1.062 4.295-1.062 1.99 0 2.574 1.062 4.31 1.022 1.785-.03 2.91-1.598 3.984-3.203.799-1.133 1.414-2.386 1.822-3.711-1.038-.44-1.923-1.174-2.546-2.113-.623-.938-.956-2.04-.957-3.166zM36.079 14.653c.974-1.169 1.453-2.672 1.337-4.189-1.488.157-2.862.868-3.849 1.992-.482.55-.852 1.188-1.087 1.88-.236.692-.333 1.424-.285 2.154.744.007 1.48-.154 2.153-.472.673-.318 1.264-.785 1.73-1.365zM60.397 32.568h-5.68l-1.364 4.027h-2.406l5.38-14.901h2.5l5.38 14.901H61.76l-1.363-4.027zm-5.092-1.86h4.502l-2.22-6.536h-.061l-2.221 6.537zM75.826 31.164c0 3.376-1.807 5.545-4.534 5.545-.691.036-1.378-.123-1.983-.46-.604-.335-1.102-.835-1.436-1.44h-.051v5.38h-2.23V25.731h2.158v1.807h.041c.35-.603.856-1.1 1.465-1.438.609-.339 1.298-.505 1.995-.483 2.757 0 4.575 2.18 4.575 5.547zm-2.292 0c0-2.2-1.137-3.646-2.872-3.646-1.703 0-2.85 1.476-2.85 3.646 0 2.189 1.147 3.655 2.85 3.655 1.735 0 2.872-1.436 2.872-3.655zM87.784 31.164c0 3.376-1.808 5.545-4.534 5.545-.691.036-1.378-.123-1.983-.46-.604-.335-1.102-.835-1.436-1.44h-.051v5.38h-2.23V25.731h2.158v1.807h.041c.35-.603.855-1.1 1.465-1.438.609-.339 1.298-.505 1.995-.483 2.757 0 4.575 2.18 4.575 5.547zm-2.293 0c0-2.2-1.136-3.646-2.87-3.646-1.705 0-2.85 1.476-2.85 3.646 0 2.189 1.145 3.655 2.85 3.655 1.734 0 2.87-1.436 2.87-3.655zM95.687 32.443c.165 1.478 1.6 2.448 3.562 2.448 1.88 0 3.232-.97 3.232-2.302 0-1.157-.815-1.85-2.747-2.324l-1.93-.466c-2.737-.66-4.008-1.94-4.008-4.017 0-2.57 2.241-4.337 5.423-4.337 3.149 0 5.307 1.766 5.38 4.337h-2.251c-.135-1.487-1.364-2.384-3.16-2.384-1.797 0-3.027.908-3.027 2.23 0 1.053.785 1.673 2.706 2.148l1.642.403c3.057.723 4.328 1.951 4.328 4.13 0 2.788-2.221 4.535-5.753 4.535-3.305 0-5.536-1.706-5.68-4.4h2.283zM109.65 23.16v2.57h2.066v1.767h-2.066v5.99c0 .93.413 1.363 1.321 1.363.246-.004.491-.021.734-.051v1.755c-.408.076-.823.111-1.239.103-2.199 0-3.057-.826-3.057-2.933v-6.227h-1.58V25.73h1.58V23.16h2.241zM112.912 31.164c0-3.419 2.013-5.567 5.153-5.567 3.15 0 5.154 2.148 5.154 5.567 0 3.427-1.994 5.566-5.154 5.566s-5.153-2.139-5.153-5.566zm8.034 0c0-2.345-1.074-3.73-2.881-3.73-1.807 0-2.881 1.395-2.881 3.73 0 2.354 1.074 3.727 2.881 3.727 1.807 0 2.881-1.373 2.881-3.727zM125.057 25.73h2.127v1.85h.052c.144-.577.482-1.088.958-1.445.476-.358 1.06-.54 1.655-.518.257 0 .514.027.764.083v2.086c-.324-.099-.663-.144-1.002-.135-.324-.013-.647.044-.946.168-.3.123-.57.31-.791.548-.22.237-.387.52-.488.828-.102.308-.135.634-.099.956v6.444h-2.23V25.731zM140.895 33.404c-.3 1.972-2.22 3.326-4.678 3.326-3.16 0-5.122-2.118-5.122-5.515 0-3.408 1.972-5.618 5.028-5.618 3.006 0 4.897 2.065 4.897 5.36v.763h-7.674v.135c-.035.4.015.803.147 1.182.132.379.343.725.62 1.016.276.291.612.52.983.672.372.151.772.222 1.173.207.527.05 1.056-.072 1.508-.348.452-.275.803-.689 1.001-1.18h2.117zm-7.538-3.242h5.431c.02-.36-.034-.72-.16-1.057-.125-.338-.319-.645-.57-.904-.25-.26-.551-.464-.884-.6-.333-.138-.691-.204-1.051-.197-.363-.002-.723.068-1.059.206-.336.137-.641.34-.899.596-.257.257-.461.562-.6.897-.138.336-.209.695-.208 1.059zM55.026 10.477c.467-.033.936.037 1.373.207.437.17.83.434 1.153.775.322.34.565.748.711 1.193.146.446.19.918.132 1.383 0 2.288-1.237 3.602-3.37 3.602H52.44v-7.16h2.587zm-1.475 6.148h1.35c.334.02.669-.035.979-.16.31-.126.589-.32.815-.566.226-.246.394-.54.492-.86.099-.32.124-.658.076-.99.045-.33.017-.665-.083-.982-.1-.318-.269-.61-.494-.854-.226-.245-.503-.437-.812-.562-.308-.125-.64-.18-.973-.162h-1.35v5.136zM59.65 14.933c-.033-.355.008-.713.12-1.052.113-.338.295-.65.535-.913.24-.264.532-.475.858-.62.327-.144.68-.219 1.036-.219.357 0 .71.075 1.036.22.326.144.619.355.859.619s.422.575.534.913c.113.339.153.697.12 1.052.034.356-.006.714-.118 1.053-.113.34-.295.651-.535.916-.24.264-.532.476-.859.62-.326.145-.68.22-1.037.22-.357 0-.71-.075-1.037-.22-.326-.144-.619-.356-.859-.62-.24-.265-.422-.576-.534-.916-.113-.339-.153-.697-.118-1.053zm4 0c0-1.171-.526-1.856-1.45-1.856-.926 0-1.448.685-1.448 1.856 0 1.18.522 1.86 1.449 1.86.923 0 1.45-.684 1.45-1.86zM71.522 17.637h-1.106l-1.117-3.98h-.084l-1.112 3.98h-1.096l-1.49-5.403H66.6l.968 4.123h.08l1.11-4.123h1.024l1.11 4.123h.085l.963-4.123h1.067l-1.484 5.403zM74.258 12.234h1.027v.858h.08c.135-.308.363-.567.652-.74.289-.172.625-.25.96-.223.263-.02.527.02.772.117.246.096.467.246.646.439.18.193.314.424.392.675.078.252.099.518.06.78v3.497h-1.066v-3.23c0-.868-.377-1.3-1.166-1.3-.178-.008-.357.022-.522.089-.166.067-.315.169-.438.299-.122.13-.215.285-.272.454-.057.17-.077.35-.058.527v3.161h-1.067v-5.403zM80.547 10.124h1.066v7.513h-1.066v-7.513zM83.095 14.933c-.034-.355.007-.713.12-1.052.112-.338.294-.65.534-.914.24-.264.533-.474.86-.619.325-.144.678-.219 1.035-.219.357 0 .71.075 1.036.22.326.144.618.354.858.618s.422.576.535.914c.113.339.153.697.12 1.052.034.356-.006.714-.118 1.053-.113.34-.295.651-.535.916-.24.264-.533.476-.86.62-.326.145-.679.22-1.036.22s-.71-.075-1.037-.22c-.326-.144-.62-.356-.86-.62-.24-.265-.421-.576-.534-.916-.112-.339-.152-.697-.118-1.053zm4 0c0-1.171-.526-1.856-1.45-1.856-.926 0-1.448.685-1.448 1.856 0 1.18.522 1.86 1.448 1.86.924 0 1.45-.684 1.45-1.86zM89.315 16.11c0-.973.724-1.534 2.01-1.614l1.464-.084v-.467c0-.57-.378-.893-1.107-.893-.595 0-1.007.219-1.126.601h-1.032c.109-.928.982-1.524 2.208-1.524 1.354 0 2.118.675 2.118 1.816v3.692h-1.026v-.759h-.085c-.17.272-.411.494-.697.643-.285.15-.604.22-.926.205-.227.024-.456 0-.673-.07-.217-.071-.416-.186-.586-.339-.17-.152-.306-.338-.399-.546-.093-.208-.142-.434-.143-.662zm3.474-.462v-.452l-1.32.084c-.744.05-1.082.303-1.082.78 0 .486.422.769 1.002.769.17.017.342 0 .505-.05.163-.051.315-.134.445-.244.131-.11.238-.246.315-.398.077-.153.123-.32.135-.49zM95.252 14.933c0-1.707.878-2.789 2.243-2.789.338-.015.673.066.966.233.294.168.533.416.69.715h.08v-2.968h1.067v7.513h-1.022v-.853h-.084c-.17.297-.418.541-.717.708-.3.166-.638.247-.98.234-1.375 0-2.243-1.081-2.243-2.793zm1.102 0c0 1.146.54 1.836 1.443 1.836.9 0 1.454-.7 1.454-1.831 0-1.126-.56-1.836-1.454-1.836-.897 0-1.444.694-1.444 1.831zM104.71 14.933c-.034-.355.007-.713.119-1.052.113-.338.295-.65.535-.913.24-.264.532-.475.859-.62.326-.144.679-.219 1.035-.219.357 0 .71.075 1.036.22.326.144.619.355.859.619s.422.575.534.913c.113.339.154.697.12 1.052.034.356-.006.714-.118 1.053-.113.34-.295.651-.535.916-.24.264-.532.476-.859.62-.326.145-.679.22-1.037.22-.357 0-.71-.075-1.037-.22-.326-.144-.619-.356-.859-.62-.24-.265-.422-.576-.534-.916-.112-.339-.153-.697-.118-1.053zm4 0c0-1.171-.526-1.856-1.45-1.856-.927 0-1.448.685-1.448 1.856 0 1.18.521 1.86 1.448 1.86.924 0 1.45-.684 1.45-1.86zM111.237 12.234h1.027v.858h.08c.135-.308.363-.567.652-.74.289-.172.625-.25.96-.223.263-.02.527.02.773.117.245.096.466.246.646.439.179.193.313.424.391.675.079.252.099.518.06.78v3.497h-1.066v-3.23c0-.868-.377-1.3-1.166-1.3-.178-.008-.357.022-.522.089-.166.067-.315.169-.438.299-.122.13-.215.285-.272.454-.057.17-.077.35-.058.527v3.161h-1.067v-5.403zM121.852 10.888v1.37h1.171v.899h-1.171v2.778c0 .566.234.814.764.814.136 0 .272-.009.407-.025v.889c-.191.034-.386.052-.58.054-1.186 0-1.658-.417-1.658-1.459v-3.051h-.858v-.899h.858v-1.37h1.067zM124.48 10.124h1.057v2.978h.084c.142-.311.376-.571.671-.744.295-.173.636-.252.977-.224.261-.014.523.03.765.128.243.098.461.25.639.442s.311.421.39.671c.079.25.101.514.067.774v3.488h-1.068v-3.225c0-.863-.402-1.3-1.155-1.3-.184-.015-.368.01-.541.073-.172.064-.329.165-.458.295-.13.13-.229.288-.292.46-.062.174-.086.358-.07.541v3.156h-1.066v-7.513zM135.348 16.178c-.145.494-.459.921-.887 1.207-.428.286-.943.412-1.455.357-.356.009-.71-.06-1.037-.2-.327-.141-.619-.352-.856-.617-.238-.265-.415-.58-.519-.92-.104-.34-.133-.7-.084-1.052-.047-.354-.018-.714.086-1.056.103-.341.279-.657.516-.925.236-.267.527-.481.853-.626.326-.146.679-.22 1.037-.216 1.503 0 2.41 1.027 2.41 2.723v.373h-3.816v.06c-.016.198.009.397.074.585.065.188.168.36.304.507.135.145.3.261.482.34.183.078.381.118.579.115.256.031.514-.015.743-.132.229-.116.418-.298.543-.523h1.027zm-3.752-1.741h2.73c.013-.181-.012-.364-.073-.535-.061-.171-.157-.328-.282-.46-.126-.131-.277-.236-.445-.305-.168-.07-.349-.104-.53-.1-.185-.002-.368.032-.539.102-.171.07-.326.173-.456.303-.131.13-.234.286-.303.457-.069.17-.104.354-.102.538z"/>
    </g>
    <defs>
        <clipPath id="clip0">
            <path fill="#fff" d="M0 0H162V48H0z"/>
        </clipPath>
    </defs>
</svg>
