<svg xmlns="http://www.w3.org/2000/svg" width="32" height="32" fill="none" viewBox="0 0 32 32">
    <path fill="#fff" fill-rule="evenodd" d="M0 16C0 7.163 7.163 0 16 0s16 7.163 16 16-7.163 16-16 16S0 24.837 0 16z" clip-rule="evenodd" opacity=".1"/>
    <path fill="#fff" fill-rule="evenodd" d="M16 7.467c-2.317 0-2.608.01-3.518.051-.908.042-1.528.186-2.07.397-.562.218-1.038.51-1.513.984-.474.474-.766.95-.984 1.511-.212.543-.356 1.163-.397 2.071-.04.91-.051 1.202-.051 3.52 0 2.317.01 2.607.051 3.517.042.908.186 1.528.397 2.071.218.561.51 1.037.984 1.512.474.474.95.767 1.511.985.543.21 1.163.354 2.072.396.91.041 1.2.052 3.518.052 2.317 0 2.607-.01 3.518-.052.908-.042 1.529-.185 2.072-.396.56-.218 1.036-.51 1.51-.985.475-.475.767-.95.985-1.512.21-.543.354-1.163.397-2.071.04-.91.051-1.2.051-3.518 0-2.317-.01-2.608-.051-3.518-.043-.909-.187-1.53-.397-2.072-.218-.56-.51-1.037-.985-1.511-.474-.475-.949-.767-1.51-.984-.545-.211-1.165-.355-2.074-.397-.91-.041-1.2-.051-3.518-.051h.003zm-.765 1.537h.766c2.278 0 2.548.009 3.448.05.832.038 1.284.177 1.584.293.399.155.682.34.981.639.299.298.483.583.639.981.116.3.256.752.293 1.584.041.9.05 1.17.05 3.447 0 2.278-.009 2.548-.05 3.447-.038.832-.177 1.284-.293 1.584-.155.398-.34.682-.639.98-.299.3-.582.484-.98.639-.301.117-.753.256-1.585.294-.9.04-1.17.05-3.448.05-2.279 0-2.549-.01-3.448-.05-.833-.039-1.284-.178-1.585-.294-.398-.155-.683-.34-.981-.639-.299-.298-.484-.582-.639-.98-.117-.3-.256-.752-.294-1.584-.04-.9-.049-1.17-.049-3.449s.008-2.548.05-3.447c.037-.832.176-1.284.293-1.585.155-.398.34-.682.639-.98.298-.3.583-.484.981-.64.3-.117.752-.255 1.585-.294.787-.035 1.092-.046 2.682-.048v.002zm5.32 1.417c-.564 0-1.023.459-1.023 1.024s.459 1.024 1.024 1.024 1.024-.459 1.024-1.024-.459-1.024-1.024-1.024zm-4.554 1.197c-2.42 0-4.382 1.962-4.382 4.382S13.58 20.381 16 20.381s4.381-1.96 4.381-4.38c0-2.421-1.961-4.383-4.381-4.383zm0 1.538c1.57 0 2.844 1.273 2.844 2.844 0 1.57-1.273 2.845-2.844 2.845S13.156 17.57 13.156 16c0-1.571 1.274-2.844 2.845-2.844z" clip-rule="evenodd"/>
</svg>
