<svg xmlns="http://www.w3.org/2000/svg" width="120" height="32" fill="none" viewBox="0 0 120 32">
    <g clip-path="url(#clip0)">
        <path fill="#F22BB2" d="M.658 32h10.849c5.144 0 9.315-4.17 9.315-9.315H9.972C4.829 22.685.659 26.855.659 32z"/>
        <path fill="#8C30F5" d="M1.143 9.315v13.699c5.144 0 9.315-4.17 9.315-9.315V0C5.313 0 1.143 4.17 1.143 9.315z"/>
        <path fill="#FE9A22" d="M31.343 0h-10.85c-5.144 0-9.315 4.17-9.315 9.315h10.85c5.144 0 9.315-4.17 9.315-9.315z"/>
        <path fill="#2EC5CE" d="M31.343 22.137V8.438c-5.145 0-9.316 4.17-9.316 9.315v13.7c5.145 0 9.316-4.171 9.316-9.316z"/>
    </g>
    <path fill="#fff" d="M46.171 20.48V8h-3.657v16h9.372v-3.52H46.17zM61.568 12.572v1.074c-.755-.869-1.875-1.395-3.406-1.395-2.994 0-5.463 2.629-5.463 6.035 0 3.405 2.469 6.034 5.463 6.034 1.531 0 2.651-.526 3.406-1.394V24h3.428V12.572h-3.428zm-2.72 8.502c-1.578 0-2.72-1.074-2.72-2.788 0-1.715 1.142-2.789 2.72-2.789 1.577 0 2.72 1.075 2.72 2.789 0 1.714-1.143 2.788-2.72 2.788zM74.209 12.252c-1.509 0-2.652.548-3.269 1.394V12.57h-3.428V24h3.428v-6.24c0-1.623.869-2.354 2.126-2.354 1.097 0 1.988.663 1.988 2.08V24h3.429v-7.017c0-3.086-1.966-4.732-4.274-4.732zM89.135 8v5.646c-.755-.869-1.875-1.395-3.406-1.395-2.994 0-5.463 2.629-5.463 6.035 0 3.405 2.469 6.034 5.463 6.034 1.531 0 2.651-.526 3.406-1.394V24h3.428V8h-3.428zm-2.72 13.074c-1.578 0-2.72-1.074-2.72-2.788 0-1.715 1.142-2.789 2.72-2.789 1.577 0 2.72 1.075 2.72 2.789 0 1.714-1.143 2.788-2.72 2.788zM96.793 11.566c1.12 0 2.057-.937 2.057-2.057 0-1.12-.937-2.058-2.057-2.058-1.12 0-2.057.938-2.057 2.058 0 1.12.937 2.057 2.057 2.057zM95.078 24h3.43V12.572h-3.43V24zM107.302 10.972V7.68c-3.795-.229-5.555 1.691-5.555 4.892h-1.531v3.29h1.531V24h3.429v-8.137h2.126v-3.291h-2.126c0-1.326.846-1.715 2.126-1.6zM116.207 12.572l-2.148 6.994-2.538-6.994h-3.771l4.549 10.902c-.503 1.395-1.258 1.898-2.858 1.898v3.2c3.2.16 5.235-1.28 6.515-4.915l3.908-11.085h-3.657z"/>
    <defs>
        <clipPath id="clip0">
            <path fill="#fff" d="M0 0H32V32H0z"/>
        </clipPath>
    </defs>
</svg>
